<?xml version="1.0" encoding="UTF-8" standalone="no"?><!DOCTYPE svg PUBLIC "-//W3C//DTD SVG 1.1//EN" "http://www.w3.org/Graphics/SVG/1.1/DTD/svg11.dtd"><svg width="100%" height="100%" viewBox="0 0 128 128" version="1.1" xmlns="http://www.w3.org/2000/svg" xmlns:xlink="http://www.w3.org/1999/xlink" xml:space="preserve" xmlns:serif="http://www.serif.com/" style="fill-rule:evenodd;clip-rule:evenodd;stroke-linejoin:round;stroke-miterlimit:2;"><path id="Apple" d="M86.59,66.275c-0.035,-6.554 2.929,-11.502 8.929,-15.145c-3.357,-4.805 -8.429,-7.448 -15.125,-7.966c-6.34,-0.5 -13.269,3.697 -15.805,3.697c-2.678,0 -8.822,-3.518 -13.643,-3.518c-9.965,0.16 -20.555,7.948 -20.555,23.79c0,4.679 0.857,9.519 2.572,14.502c2.286,6.555 10.536,22.63 19.143,22.362c4.501,-0.107 7.679,-3.198 13.537,-3.198c5.679,0 8.626,3.198 13.643,3.198c8.68,-0.126 16.144,-14.735 18.323,-21.308c-11.644,-5.483 -11.019,-16.074 -11.019,-16.414Zm-10.107,-29.326c4.875,-5.787 4.429,-11.056 4.286,-12.949c-4.304,0.25 -9.287,2.929 -12.126,6.233c-3.125,3.537 -4.964,7.912 -4.571,12.842c4.66,0.357 8.91,-2.036 12.411,-6.126Z" style="fill-rule:nonzero;"/></svg>