<?xml version="1.0" encoding="UTF-8" standalone="no"?><!DOCTYPE svg PUBLIC "-//W3C//DTD SVG 1.1//EN" "http://www.w3.org/Graphics/SVG/1.1/DTD/svg11.dtd"><svg width="100%" height="100%" viewBox="0 0 128 128" version="1.1" xmlns="http://www.w3.org/2000/svg" xmlns:xlink="http://www.w3.org/1999/xlink" xml:space="preserve" xmlns:serif="http://www.serif.com/" style="fill-rule:evenodd;clip-rule:evenodd;stroke-linejoin:round;stroke-miterlimit:2;"><path id="Github" d="M64,24c-22.645,0 -41.006,18.363 -41.006,41.011c0,18.123 11.748,33.492 28.044,38.914c2.05,0.375 2.798,-0.891 2.798,-1.973c0,-0.976 -0.037,-4.21 -0.057,-7.634c-11.403,2.478 -13.813,-4.836 -13.813,-4.836c-1.867,-4.736 -4.553,-5.998 -4.553,-5.998c-3.727,-2.543 0.283,-2.493 0.283,-2.493c4.117,0.285 6.284,4.225 6.284,4.225c3.659,6.268 9.601,4.456 11.934,3.405c0.372,-2.644 1.434,-4.456 2.603,-5.477c-9.103,-1.036 -18.679,-4.556 -18.679,-20.271c0,-4.48 1.6,-8.135 4.217,-11.006c-0.418,-1.041 -1.829,-5.214 0.406,-10.858c0,0 3.439,-1.102 11.277,4.205c3.269,-0.914 6.776,-1.364 10.262,-1.379c3.484,0.015 6.993,0.47 10.266,1.384c7.824,-5.312 11.268,-4.205 11.268,-4.205c2.243,5.649 0.831,9.817 0.411,10.853c2.627,2.871 4.214,6.526 4.214,11.006c0,15.755 -9.59,19.224 -18.726,20.241c1.477,1.271 2.783,3.764 2.783,7.589c0,5.482 -0.055,9.903 -0.055,11.254c0,1.092 0.746,2.368 2.824,1.968c16.283,-5.432 28.021,-20.801 28.021,-38.914c0,-22.648 -18.361,-41.011 -41.006,-41.011Z" style="fill-rule:nonzero;"/></svg>