<?xml version="1.0" encoding="UTF-8" standalone="no"?><!DOCTYPE svg PUBLIC "-//W3C//DTD SVG 1.1//EN" "http://www.w3.org/Graphics/SVG/1.1/DTD/svg11.dtd"><svg width="100%" height="100%" viewBox="0 0 128 128" version="1.1" xmlns="http://www.w3.org/2000/svg" xmlns:xlink="http://www.w3.org/1999/xlink" xml:space="preserve" xmlns:serif="http://www.serif.com/" style="fill-rule:evenodd;clip-rule:evenodd;stroke-linejoin:round;stroke-miterlimit:2;"><path id="Netflix" d="M42.003,24.01l0,-0.01l15.756,0l0.105,0.295c0.052,0.168 1.355,3.84 2.888,8.186c0.452,1.284 0.242,0.695 0.641,1.821l-0.002,0.046c5.12,14.49 6.046,17.118 7.407,20.967l0.001,-0.009l0,0.01l1.449,4.104l0,-0.01l0,0l0.032,-17.668c0,0 0.031,-17.679 0.031,-17.679l15.651,0l0.032,39.924c0.01,21.962 0,39.956 -0.053,39.998c-0.013,0.01 -0.068,0.015 -0.155,0.014l-0.011,0l0,0c-0.257,-0.001 -0.824,-0.05 -1.452,-0.13c-3.623,-0.452 -8.392,-0.863 -12.237,-1.052c-1.271,-0.063 -2.321,-0.126 -2.332,-0.137c-0.025,-0.034 -3.754,-10.598 -10.693,-30.274l-1.239,-3.507l-0.032,16.892c-0.021,16.037 -0.031,16.931 -0.21,16.931c-0.588,0.011 -5.756,0.337 -7.479,0.484c-1.123,0.095 -3.382,0.326 -5.021,0.505c-1.638,0.179 -2.993,0.316 -3.025,0.284c-0.031,-0.031 -0.052,-18.036 -0.052,-40.018l0,-39.967Z" style="fill-rule:nonzero;"/></svg>