<?xml version="1.0" encoding="UTF-8" standalone="no"?><!DOCTYPE svg PUBLIC "-//W3C//DTD SVG 1.1//EN" "http://www.w3.org/Graphics/SVG/1.1/DTD/svg11.dtd"><svg width="100%" height="100%" viewBox="0 0 128 128" version="1.1" xmlns="http://www.w3.org/2000/svg" xmlns:xlink="http://www.w3.org/1999/xlink" xml:space="preserve" xmlns:serif="http://www.serif.com/" style="fill-rule:evenodd;clip-rule:evenodd;stroke-linejoin:round;stroke-miterlimit:2;"><path id="Ubisoft" d="M61.598,24c-24.75,0 -35.433,22.106 -35.433,22.106l3.144,2.259c0,0 -3.957,7.551 -3.847,17.237c0,19.772 15.685,38.398 38.775,38.398c20.976,0 38.303,-17.132 38.303,-38.349c0,-27.672 -21.384,-41.651 -40.942,-41.651Zm0.214,6.745c19.337,0 34.342,15.637 34.342,33.815c0,19.269 -14.443,32.67 -31.273,32.67c-12.387,0 -23.561,-9.465 -23.561,-22.443c0,-7.496 3.97,-12.721 8.419,-15.506l0.651,0.709c-1.217,0.956 -4.689,6.552 -4.689,12.052c0,10.21 7.98,17.282 18.034,17.282c12.806,0 21.347,-10.961 21.347,-23.687c0,-14.807 -13.025,-27.378 -28.7,-27.378c-8.67,0 -16.029,3.741 -20.257,7.044l-0.658,-0.597c5.532,-8.559 15.112,-13.961 26.345,-13.961Zm-5.769,14.165c10.002,0 19.768,6.641 22.206,16.067l-0.887,0.337c-4.376,-5.8 -11.548,-10.607 -20.017,-10.607c-15.584,0 -23.769,14.21 -22.567,26.078l-0.918,0.338c0,0 -1.721,-3.812 -1.721,-8.331c0,-13.086 10.71,-23.882 23.904,-23.882Zm6.611,16.424c4.736,0 8.523,3.852 8.523,8.424c0,3.784 -2.421,6.027 -2.421,6.027l2.868,2.012c0,0 -2.844,4.479 -8.648,4.479c-5.552,0 -10.463,-4.497 -10.463,-10.544c0,-6.231 5.342,-10.398 10.141,-10.398Z" style="fill-rule:nonzero;"/></svg>