<?xml version="1.0" encoding="UTF-8" standalone="no"?><!DOCTYPE svg PUBLIC "-//W3C//DTD SVG 1.1//EN" "http://www.w3.org/Graphics/SVG/1.1/DTD/svg11.dtd"><svg width="100%" height="100%" viewBox="0 0 128 128" version="1.1" xmlns="http://www.w3.org/2000/svg" xmlns:xlink="http://www.w3.org/1999/xlink" xml:space="preserve" xmlns:serif="http://www.serif.com/" style="fill-rule:evenodd;clip-rule:evenodd;stroke-linejoin:round;stroke-miterlimit:2;"><path id="Unity" d="M90.333,88l-14.333,-24l14.333,-24l7,24l-7,24Zm-31.666,-2.333l-18,-17.667l28.666,0l14.334,24l-25,-6.333Zm0,-43.667l25,-6.333l-14.334,24l-29,0c0,0.333 18.334,-17.667 18.334,-17.667Zm36.666,-18l-32.666,8.333l-5,8.334l-9.667,0l-24,23.333l24,23.333l9.667,0l4.666,8.334l32.667,8.333l8.667,-31.667l-4.667,-8.333l5,-8.333l-8.667,-31.667Z" style="fill-rule:nonzero;"/></svg>