<?xml version="1.0" encoding="UTF-8" standalone="no"?><!DOCTYPE svg PUBLIC "-//W3C//DTD SVG 1.1//EN" "http://www.w3.org/Graphics/SVG/1.1/DTD/svg11.dtd"><svg width="100%" height="100%" viewBox="0 0 897 240" version="1.1" xmlns="http://www.w3.org/2000/svg" xmlns:xlink="http://www.w3.org/1999/xlink" xml:space="preserve" xmlns:serif="http://www.serif.com/" style="fill-rule:evenodd;clip-rule:evenodd;stroke-linejoin:round;stroke-miterlimit:2;"><rect id="Welcome" x="0" y="0" width="897" height="240" style="fill:none;"/><clipPath id="_clip1"><rect x="0" y="0" width="897" height="240"/></clipPath><g clip-path="url(#_clip1)"><g id="HIGHLOAD"><path d="M322.838,143.138c4.836,0 10.047,4.025 15.635,12.074c0,2.839 -2.526,8.732 -7.576,17.68l-4.513,10.08l1.021,0l30.677,-8.086c4.585,-11.786 9.438,-21.866 14.56,-30.239l5.05,-1.509c3.725,0.108 8.417,3.306 14.076,9.595l0,3.018c0,2.408 -3.349,8.786 -10.047,19.135c-2.041,5.139 -3.062,8.679 -3.062,10.619l1.504,1.509l0,1.024l-6.017,3.019c0,1.006 -0.663,1.509 -1.988,1.509l0,0.485l0.484,0.539l0,0.485c-0.573,0 -1.075,1.007 -1.505,3.019c-0.859,0 -2.041,1.851 -3.545,5.552l-0.484,0l-0.483,-0.485l-0.538,0c0,2.803 -1.665,4.474 -4.996,5.013l0.483,0.539l0,1.024c-1.003,0 -1.504,0.503 -1.504,1.509l-1.021,0l-0.483,1.994l0.483,0.486l0,1.024l-0.483,0l-1.505,-0.485l0,1.509l-0.483,0l0.483,0.485l0,0.539c-2.686,2.623 -4.53,6.828 -5.533,12.613c0,1.617 -1.003,3.791 -3.009,6.522l-0.537,0l-0.484,-0.485l-0.483,0l-1.504,1.509c0,-0.682 -1.845,-1.185 -5.534,-1.509l-0.537,-2.048l-0.484,0.539l-0.483,0c-1.003,-1.222 -1.505,-2.569 -1.505,-4.043c0,-6.324 2.848,-15.074 8.543,-26.25l2.471,-6.037l-0.484,0l-35.673,9.055c-0.788,2.049 -1.469,3.073 -2.042,3.073l-0.483,-0.539l-0.538,0c-2.328,2.659 -4.674,7.87 -7.038,15.631l-6.5,10.134l-0.538,0l0,-1.024l-1.987,1.509l-7.038,-2.533c0,-1.689 -0.842,-2.534 -2.525,-2.534l0,-3.018c0,-3.845 3.527,-12.416 10.583,-25.711l0.484,-2.534c-1.003,-0.323 -1.504,-1.329 -1.504,-3.018l0,-4.043c5.587,-2.911 8.775,-5.947 9.563,-9.109l10.53,-25.227l-0.484,-0.485l0,-0.485l4.513,-10.08l6.017,-2.533Z" style="fill:url(#_Linear2);fill-rule:nonzero;"/><path d="M406.166,146.211l2.955,0c5.946,0 10.566,2.641 13.861,7.923l0,1.994c0,0.935 -3.134,6.559 -9.402,16.872l-21.758,45.17c-2.83,5.21 -4.818,8.193 -5.964,8.947l-0.483,-0.539l-0.484,0l-1.021,2.48l-0.967,0l0.967,-3.45l-5.426,8.948l-0.483,0l-0.484,-0.485l0,-0.539l0.484,-0.485l0,-0.971l-0.484,0l-1.988,4.474l-1.021,0l0,-0.539l1.021,-2.479l-7.951,6.468l-1.451,-0.97l0.484,-0.539l0,-1.456l-1.505,0.971l-0.967,-0.971c0,-4.348 11.874,-32.646 35.62,-84.895c1.433,-3.953 3.582,-5.929 6.447,-5.929Zm-9.509,64.574l0,0.809l0.43,0l0,-0.809l-0.43,0Z" style="fill:url(#_Linear3);fill-rule:nonzero;"/><path d="M481.328,146.103l1.558,0c9.026,0 15.294,3.917 18.804,11.75c-0.824,7.151 -2.006,10.727 -3.546,10.727l-0.537,0c-2.114,0 -5.677,-1.024 -10.692,-3.073l-10.154,-1.024c-18.517,0 -34.115,7.654 -46.794,22.963c-5.445,7.402 -8.167,15.398 -8.167,23.986c0,4.779 3.564,7.169 10.692,7.169c4.298,0 10.404,-1.366 18.32,-4.097l0,-0.485l-0.537,0l-14.721,1.024c0,-0.934 -1.361,-2.138 -4.083,-3.611l0.483,-0.485l0,-0.539l-3.008,0l0,-1.024l3.008,-0.485l0,-0.486l-4.029,-0.539l0,-1.024l1.504,0l0,-0.485l-2.525,0l0,-0.539l1.021,-1.509c-2.4,0 -3.6,-0.342 -3.6,-1.024c0,-2.264 20.864,-7.025 62.59,-14.284c3.904,0 6.788,2.371 8.65,7.115l0.537,1.563c0,3.522 -2.381,7.259 -7.145,11.212c0,3.341 -8.471,10.151 -25.412,20.428c-7.951,4.42 -15.76,6.63 -23.424,6.63l-4.567,0c-15.222,0 -25.412,-7.833 -30.57,-23.501l-0.483,-4.582l0,-3.072c0,-12.29 9.491,-27.095 28.474,-44.415c14.04,-9.523 30.158,-14.284 48.353,-14.284Z" style="fill:url(#_Linear4);fill-rule:nonzero;"/><path d="M522.428,143.138c4.835,0 10.046,4.025 15.634,12.074c0,2.839 -2.525,8.732 -7.576,17.68l-4.512,10.08l1.02,0l30.677,-8.086c4.585,-11.786 9.438,-21.866 14.56,-30.239l5.05,-1.509c3.725,0.108 8.417,3.306 14.076,9.595l0,3.018c0,2.408 -3.349,8.786 -10.046,19.135c-2.042,5.139 -3.063,8.679 -3.063,10.619l1.505,1.509l0,1.024l-6.018,3.019c0,1.006 -0.662,1.509 -1.988,1.509l0,0.485l0.484,0.539l0,0.485c-0.573,0 -1.075,1.007 -1.504,3.019c-0.86,0 -2.042,1.851 -3.546,5.552l-0.484,0l-0.483,-0.485l-0.537,0c0,2.803 -1.666,4.474 -4.997,5.013l0.484,0.539l0,1.024c-1.003,0 -1.505,0.503 -1.505,1.509l-1.021,0l-0.483,1.994l0.483,0.486l0,1.024l-0.483,0l-1.504,-0.485l0,1.509l-0.484,0l0.484,0.485l0,0.539c-2.687,2.623 -4.531,6.828 -5.534,12.613c0,1.617 -1.003,3.791 -3.009,6.522l-0.537,0l-0.483,-0.485l-0.484,0l-1.504,1.509c0,-0.682 -1.845,-1.185 -5.534,-1.509l-0.537,-2.048l-0.484,0.539l-0.483,0c-1.003,-1.222 -1.505,-2.569 -1.505,-4.043c0,-6.324 2.848,-15.074 8.543,-26.25l2.471,-6.037l-0.483,0l-35.674,9.055c-0.788,2.049 -1.468,3.073 -2.042,3.073l-0.483,-0.539l-0.537,0c-2.328,2.659 -4.674,7.87 -7.038,15.631l-6.501,10.134l-0.537,0l0,-1.024l-1.988,1.509l-7.038,-2.533c0,-1.689 -0.842,-2.534 -2.525,-2.534l0,-3.018c0,-3.845 3.528,-12.416 10.584,-25.711l0.483,-2.534c-1.003,-0.323 -1.504,-1.329 -1.504,-3.018l0,-4.043c5.587,-2.911 8.775,-5.947 9.563,-9.109l10.53,-25.227l-0.483,-0.485l0,-0.485l4.512,-10.08l6.018,-2.533Z" style="fill:url(#_Linear5);fill-rule:nonzero;"/><path d="M617.79,139.095l2.847,0c8.31,3.055 12.465,7.062 12.465,12.021c-2.149,3.521 -10.763,21.578 -25.842,54.171l-3.815,6.738l29.657,-1.941l3.814,0.486l2.848,0l0,0.97l-1.397,0l0,1.455l2.847,0l0,0.97l-4.781,2.372l0.967,2.857l2.847,0l4.298,4.366c0,0.862 -9.402,2.605 -28.206,5.228c-7.951,1.617 -18.786,4.348 -32.503,8.193l-0.484,0c-1.755,0 -4.781,-2.569 -9.079,-7.707l0,-0.486l0.483,-0.431l-0.483,-0.485l0,-4.797c0,-1.617 1.432,-3.54 4.298,-5.768c15.043,-27.921 25.877,-51.584 32.503,-70.989l-0.483,-1.455c2.006,-3.845 4.405,-5.768 7.199,-5.768Z" style="fill:url(#_Linear6);fill-rule:nonzero;"/><path d="M709.069,143.3l0.537,0c3.403,0 6.841,3.288 10.316,9.864l0.537,0.539l0,2.425c0,1.546 -2.579,2.875 -7.737,3.989l0,0.485c7.916,9.846 11.874,19.064 11.874,27.652l0,2.48c0,21.273 -9.134,34.946 -27.4,41.019c-6.232,1.653 -11.39,2.479 -15.473,2.479l-5.695,0c-16.046,0 -27.597,-8.229 -34.653,-24.687c-1.003,-0.215 -1.683,-3.18 -2.041,-8.893l0,-3.504c0,-15.955 11.533,-30.437 34.599,-43.445c14.577,-6.936 26.289,-10.403 35.136,-10.403Zm-50.609,58.322l0,0.485c0,5.714 3.617,9.002 10.852,9.864l4.137,0c11.139,0 21.473,-6.414 31,-19.243c1.468,-3.378 2.489,-7.834 3.062,-13.368c-0.322,-4.599 -0.824,-7.402 -1.504,-8.408l0.483,-1.456c-0.931,-4.959 -1.611,-7.438 -2.041,-7.438c-10.136,1.365 -21.848,7.959 -35.137,19.782c-7.235,7.043 -10.852,13.637 -10.852,19.782Z" style="fill:url(#_Linear7);fill-rule:nonzero;"/><path d="M773.862,145.564c8.632,0 13.915,2.569 15.849,7.708c1.11,4.563 2.453,13.619 4.029,27.166l0.484,0.485c0.179,2.121 0.626,3.181 1.343,3.181l14.452,-1.833l0,0.916l0.483,0l7.2,-0.431l0,0.863l-3.17,0.916l0,0.485l3.17,0l3.169,-0.485l0,0.916c-3.08,1.222 -5.48,1.833 -7.199,1.833l0,0.916l2.257,-0.485c2.077,0.611 3.116,1.222 3.116,1.833l2.31,-0.485c6.017,0.179 9.026,0.79 9.026,1.832l-0.484,0.431l3.17,0.917l0,0.916c-4.083,2.12 -12.518,3.935 -25.305,5.444l-8.112,1.348c3.904,15.38 5.856,25.819 5.856,31.317l0,1.779l-1.343,1.401l-0.484,0c-1.003,0 -2.041,-0.467 -3.116,-1.401l0,1.401l-0.913,0l0,-0.916l-1.397,0.916l-1.773,-1.401l-4.513,1.832l-3.653,-3.611c-1.504,-2.444 -3.761,-11.373 -6.77,-26.789l-0.429,0c-18.983,5.246 -28.475,9.343 -28.475,12.289c-1.217,0.755 -4.835,5.426 -10.852,14.015c-2.078,2.443 -3.743,3.665 -4.997,3.665l-0.913,-2.264l-0.43,0.431l-0.43,0c-1.826,-1.078 -2.74,-2.281 -2.74,-3.611l-0.429,0.431l-0.914,0l0,-0.916c-1.253,0 -2.453,-0.898 -3.599,-2.695c-1.218,0 -1.827,-0.306 -1.827,-0.917l0,-3.18c0,-3.378 3.618,-8.965 10.853,-16.763c3.08,-5.139 8.058,-12.254 14.935,-21.345l15.366,-27.167l3.116,-9.11c1.611,-1.185 2.972,-1.778 4.083,-1.778Zm-3.6,43.984l0,0.431c5.122,-1.33 7.683,-2.228 7.683,-2.695l-1.343,-7.277c-0.824,0.359 -2.937,3.54 -6.34,9.541Zm42.013,-7.708l0.914,0l0,0.916l-0.914,0l0,-0.916Zm0.484,3.18l0,0.431l0.913,0l0,-0.431l-0.913,0Z" style="fill:url(#_Linear8);fill-rule:nonzero;"/><path d="M853.751,146.049l2.364,0c12.285,0 23.747,3.737 34.384,11.211c4.334,4.205 6.501,8.247 6.501,12.128c0,8.768 -9.133,22.136 -27.4,40.103c-9.599,7.08 -19.216,12.685 -28.85,16.818c-11.032,3.234 -17.855,5.875 -20.47,7.923l-5.104,-0.485c-5.766,2.803 -9.33,4.205 -10.691,4.205l-0.483,-0.485l1.396,-2.318l-0.429,0l-2.794,0.916l-0.484,-2.803l0.914,-1.832l-0.43,0l-2.31,0.916l-0.484,-0.485l0,-0.431l0.484,-1.402l-0.484,0l-1.88,0.485c-0.931,0 -1.397,-0.629 -1.397,-1.886c-1.54,-0.216 -2.31,-0.683 -2.31,-1.402c1.361,-1.473 3.385,-2.713 6.071,-3.719c5.301,-4.061 12.571,-16.817 21.812,-38.27c5.588,-12.901 8.381,-20.214 8.381,-21.939c-5.623,0 -9.957,-3.719 -13.001,-11.157c0,-2.624 12.231,-4.654 36.694,-6.091Zm-20.415,62.526c26.325,-12.325 39.488,-23.986 39.488,-34.982c0,-7.223 -5.731,-11.733 -17.192,-13.53c-2.293,0 -3.994,2.785 -5.104,8.355l-17.192,40.157Z" style="fill:url(#_Linear9);fill-rule:nonzero;"/></g><g id="BEST-SERVERS" serif:id="BEST SERVERS"><path d="M0,88.781l41.09,0c18.969,0 30.69,-10.392 30.69,-24.804c0,-12.359 -9.079,-20.442 -20.289,-20.87l0,-0.855c10.102,-2.01 16.879,-9.494 16.879,-19.159c0,-13.343 -10.571,-21.896 -30.519,-21.896l-37.851,0l0,87.584Zm23.699,-18.988l0,-18.475l11.424,0c7.204,0 11.594,3.421 11.594,9.58c0,5.859 -3.964,8.895 -11.935,8.895l-11.083,0Zm0,-33.186l0,-16.764l10.06,0c5.882,0 10.23,2.994 10.23,8.382c0,5.388 -4.348,8.382 -10.571,8.382l-9.719,0Z" style="fill:#fff;fill-rule:nonzero;"/><path d="M80.135,88.781l62.744,0l0,-19.159l-39.045,0l0,-15.054l35.976,0l0,-19.158l-35.976,0l0,-15.054l39.215,0l0,-19.159l-62.914,0l0,87.584Z" style="fill:#fff;fill-rule:nonzero;"/><path d="M201.872,28.567l22.676,0c-0.085,-17.191 -13.299,-28.567 -34.441,-28.567c-20.758,0 -35.421,11.204 -35.293,27.883c-0.043,13.685 9.42,21.297 24.893,24.633l8.695,1.881c9.719,2.139 13.044,4.576 13.129,8.553c-0.085,4.32 -4.007,7.356 -11.594,7.356c-9.079,0 -14.45,-4.276 -14.834,-12.316l-22.506,0c0.086,21.981 14.919,31.817 37.681,31.817c22.122,0 35.379,-9.579 35.464,-26.857c-0.085,-13.342 -8.014,-22.708 -27.28,-26.856l-7.161,-1.54c-8.269,-1.753 -11.978,-4.191 -11.765,-8.382c0.043,-3.849 3.24,-6.671 10.571,-6.671c7.673,0 11.296,3.378 11.765,9.066Z" style="fill:#fff;fill-rule:nonzero;"/><path d="M232.391,20.356l26.257,0l0,68.425l23.359,0l0,-68.425l26.257,0l0,-19.159l-75.873,0l0,19.159Z" style="fill:#fff;fill-rule:nonzero;"/><path d="M388.058,28.567l22.676,0c-0.085,-17.191 -13.299,-28.567 -34.441,-28.567c-20.758,0 -35.421,11.204 -35.293,27.883c-0.043,13.685 9.42,21.297 24.893,24.633l8.695,1.881c9.719,2.139 13.044,4.576 13.129,8.553c-0.085,4.32 -4.007,7.356 -11.594,7.356c-9.079,0 -14.45,-4.276 -14.834,-12.316l-22.506,0c0.086,21.981 14.919,31.817 37.681,31.817c22.122,0 35.379,-9.579 35.464,-26.857c-0.085,-13.342 -8.014,-22.708 -27.28,-26.856l-7.161,-1.54c-8.269,-1.753 -11.978,-4.191 -11.765,-8.382c0.043,-3.849 3.24,-6.671 10.571,-6.671c7.673,0 11.296,3.378 11.765,9.066Z" style="fill:#fff;fill-rule:nonzero;"/><path d="M420.964,88.781l62.744,0l0,-19.159l-39.044,0l0,-15.054l35.975,0l0,-19.158l-35.975,0l0,-15.054l39.215,0l0,-19.159l-62.915,0l0,87.584Z" style="fill:#fff;fill-rule:nonzero;"/><path d="M495.643,88.781l23.7,0l0,-28.91l8.184,0l15.345,28.91l25.745,0l-17.732,-32.673c9.292,-4.49 14.834,-13.001 14.834,-25.146c0,-18.646 -13.001,-29.765 -32.395,-29.765l-37.681,0l0,87.584Zm23.7,-47.384l0,-21.212l8.354,0c8.312,0 13.299,3.25 13.299,10.777c0,7.484 -4.987,10.435 -13.299,10.435l-8.354,0Z" style="fill:#fff;fill-rule:nonzero;"/><path d="M599.648,1.197l-26.768,0l28.814,87.584l32.395,0l28.815,-87.584l-26.769,0l-17.902,61.753l-0.682,0l-17.903,-61.753Z" style="fill:#fff;fill-rule:nonzero;"/><path d="M671.258,88.781l62.744,0l0,-19.159l-39.044,0l0,-15.054l35.975,0l0,-19.158l-35.975,0l0,-15.054l39.215,0l0,-19.159l-62.915,0l0,87.584Z" style="fill:#fff;fill-rule:nonzero;"/><path d="M745.937,88.781l23.7,0l0,-28.91l8.184,0l15.345,28.91l25.745,0l-17.732,-32.673c9.292,-4.49 14.834,-13.001 14.834,-25.146c0,-18.646 -13.001,-29.765 -32.395,-29.765l-37.681,0l0,87.584Zm23.7,-47.384l0,-21.212l8.354,0c8.312,0 13.299,3.25 13.299,10.777c0,7.484 -4.987,10.435 -13.299,10.435l-8.354,0Z" style="fill:#fff;fill-rule:nonzero;"/><path d="M873.13,28.567l22.677,0c-0.086,-17.191 -13.299,-28.567 -34.441,-28.567c-20.759,0 -35.422,11.204 -35.294,27.883c-0.043,13.685 9.42,21.297 24.893,24.633l8.696,1.881c9.718,2.139 13.043,4.576 13.128,8.553c-0.085,4.32 -4.007,7.356 -11.594,7.356c-9.079,0 -14.45,-4.276 -14.833,-12.316l-22.506,0c0.085,21.981 14.918,31.817 37.68,31.817c22.122,0 35.379,-9.579 35.464,-26.857c-0.085,-13.342 -8.013,-22.708 -27.28,-26.856l-7.161,-1.54c-8.269,-1.753 -11.978,-4.191 -11.764,-8.382c0.042,-3.849 3.239,-6.671 10.571,-6.671c7.672,0 11.295,3.378 11.764,9.066Z" style="fill:#fff;fill-rule:nonzero;"/><path d="M0,233.293l23.699,0l0,-34.212l33.93,0l0,-19.159l-33.93,0l0,-15.053l37.681,0l0,-19.159l-61.38,0l0,87.583Z" style="fill:#fff;fill-rule:nonzero;"/><path d="M154.643,189.501c0,-29.251 -18.755,-44.989 -42.454,-44.989c-23.87,0 -42.455,15.738 -42.455,44.989c0,29.081 18.585,44.989 42.455,44.989c23.699,0 42.454,-15.737 42.454,-44.989Zm-24.381,0c0,15.738 -6.309,24.291 -18.073,24.291c-11.765,0 -18.073,-8.553 -18.073,-24.291c0,-15.737 6.308,-24.29 18.073,-24.29c11.764,0 18.073,8.553 18.073,24.29Z" style="fill:#fff;fill-rule:nonzero;"/><path d="M165.555,233.293l23.7,0l0,-28.909l8.184,0l15.345,28.909l25.745,0l-17.732,-32.673c9.293,-4.49 14.834,-13 14.834,-25.146c0,-18.645 -13.001,-29.764 -32.395,-29.764l-37.681,0l0,87.583Zm23.7,-47.384l0,-21.212l8.354,0c8.312,0 13.299,3.251 13.299,10.777c0,7.484 -4.987,10.435 -13.299,10.435l-8.354,0Z" style="fill:#fff;fill-rule:nonzero;"/></g></g><defs><linearGradient id="_Linear2" x1="0" y1="0" x2="1" y2="0" gradientUnits="userSpaceOnUse" gradientTransform="matrix(5.74625e-15,93.8434,-15.4256,9.44545e-16,294.686,139.095)"><stop offset="0" style="stop-color:#6a00ff;stop-opacity:1"/><stop offset="1" style="stop-color:#ac05ff;stop-opacity:1"/></linearGradient><linearGradient id="_Linear3" x1="0" y1="0" x2="1" y2="0" gradientUnits="userSpaceOnUse" gradientTransform="matrix(5.74625e-15,93.8434,-15.4256,9.44545e-16,294.686,139.095)"><stop offset="0" style="stop-color:#6a00ff;stop-opacity:1"/><stop offset="1" style="stop-color:#ac05ff;stop-opacity:1"/></linearGradient><linearGradient id="_Linear4" x1="0" y1="0" x2="1" y2="0" gradientUnits="userSpaceOnUse" gradientTransform="matrix(5.74625e-15,93.8434,-15.4256,9.44545e-16,294.686,139.095)"><stop offset="0" style="stop-color:#6a00ff;stop-opacity:1"/><stop offset="1" style="stop-color:#ac05ff;stop-opacity:1"/></linearGradient><linearGradient id="_Linear5" x1="0" y1="0" x2="1" y2="0" gradientUnits="userSpaceOnUse" gradientTransform="matrix(5.74625e-15,93.8434,-15.4256,9.44545e-16,294.686,139.095)"><stop offset="0" style="stop-color:#6a00ff;stop-opacity:1"/><stop offset="1" style="stop-color:#ac05ff;stop-opacity:1"/></linearGradient><linearGradient id="_Linear6" x1="0" y1="0" x2="1" y2="0" gradientUnits="userSpaceOnUse" gradientTransform="matrix(5.74625e-15,93.8434,-15.4256,9.44545e-16,294.686,139.095)"><stop offset="0" style="stop-color:#6a00ff;stop-opacity:1"/><stop offset="1" style="stop-color:#ac05ff;stop-opacity:1"/></linearGradient><linearGradient id="_Linear7" x1="0" y1="0" x2="1" y2="0" gradientUnits="userSpaceOnUse" gradientTransform="matrix(5.74625e-15,93.8434,-15.4256,9.44545e-16,294.686,139.095)"><stop offset="0" style="stop-color:#6a00ff;stop-opacity:1"/><stop offset="1" style="stop-color:#ac05ff;stop-opacity:1"/></linearGradient><linearGradient id="_Linear8" x1="0" y1="0" x2="1" y2="0" gradientUnits="userSpaceOnUse" gradientTransform="matrix(5.74625e-15,93.8434,-15.4256,9.44545e-16,294.686,139.095)"><stop offset="0" style="stop-color:#6a00ff;stop-opacity:1"/><stop offset="1" style="stop-color:#ac05ff;stop-opacity:1"/></linearGradient><linearGradient id="_Linear9" x1="0" y1="0" x2="1" y2="0" gradientUnits="userSpaceOnUse" gradientTransform="matrix(5.74625e-15,93.8434,-15.4256,9.44545e-16,294.686,139.095)"><stop offset="0" style="stop-color:#6a00ff;stop-opacity:1"/><stop offset="1" style="stop-color:#ac05ff;stop-opacity:1"/></linearGradient></defs></svg>